<?xml version="1.0" encoding="utf-8"?>
<!-- Generator: Adobe Illustrator 26.0.1, SVG Export Plug-In . SVG Version: 6.00 Build 0)  -->
<svg version="1.1" id="Layer_1" xmlns="http://www.w3.org/2000/svg" xmlns:xlink="http://www.w3.org/1999/xlink" x="0px" y="0px"
	 viewBox="0 0 1000 1000" style="enable-background:new 0 0 1000 1000;" xml:space="preserve">
<style type="text/css">
	.st0{fill:url(#SVGID_1_);}
	.st1{fill:url(#SVGID_00000116222952173001629170000012660098761119165600_);}
	.st2{fill:url(#SVGID_00000016060711405185795730000013266309606804499088_);}
	.st3{fill:#E8541E;}
	.st4{fill:#2D2D3A;}
	.st5{fill:url(#SVGID_00000020379700117239408020000009398066508864356786_);}
	.st6{fill:url(#SVGID_00000108302455781998251650000005466730611746215085_);}
	.st7{fill:url(#SVGID_00000027587389297328381730000017041921795234574514_);}
	.st8{fill:url(#SVGID_00000034771863647970215550000006360266380116518785_);}
	.st9{fill:url(#SVGID_00000127036550332802558440000004172476845365616795_);}
	.st10{opacity:0.25;}
	.st11{fill:url(#SVGID_00000139975016707952138170000007255529238830510782_);}
	.st12{fill:url(#SVGID_00000079448671719529006010000010780167327386923166_);}
	.st13{fill:url(#SVGID_00000067920782520685314810000013788372301450466688_);}
	.st14{fill:url(#SVGID_00000118385038238169336320000014523079898116614534_);}
	.st15{fill:url(#SVGID_00000045583331363476409510000011748567775459412648_);}
	.st16{fill:url(#SVGID_00000057148543260790980700000010750055218652578698_);}
	.st17{fill:url(#SVGID_00000007418820261192268970000015820346216662398097_);}
	.st18{fill:url(#SVGID_00000114046610256088517120000015028373752950205847_);}
</style>
<path d="M268.11,323.83c1.57-0.35,3.31-0.74,4.84-1.09C271.92,325.22,270.11,325.55,268.11,323.83z"/>
<g>
	<linearGradient id="SVGID_1_" gradientUnits="userSpaceOnUse" x1="362.6111" y1="440.7136" x2="500.5667" y2="362.8203">
		<stop  offset="0.5265" style="stop-color:#0B1D25"/>
		<stop  offset="1" style="stop-color:#334554"/>
	</linearGradient>
	<path class="st0" d="M410.39,314.59c0,0-51.63,32.07-51.94,80.56c0,0-6.26,73.83,74.77,85.4c0,0,72.58,7.51,77.89-51.62
		c0,0-0.39-3.21-5.01-1.64l-55.16,16.24c0,0-15.99,5.4-37.15-3.04l-4.85-16.95l78.07-22.25c17.27-4.92,26.69-23.5,20.47-40.34
		l-3.98-10.77c-0.52-1.42-2.6-1.17-2.77,0.33v0c-0.91,7.87-6.5,14.41-14.14,16.51l-97.94,27.01l15.8-58.03L410.39,314.59z"/>
	
		<linearGradient id="SVGID_00000060001821293702083160000009706653388986913960_" gradientUnits="userSpaceOnUse" x1="383.9053" y1="351.0766" x2="470.2494" y2="351.0766">
		<stop  offset="0" style="stop-color:#FC4708"/>
		<stop  offset="1" style="stop-color:#FDA501"/>
	</linearGradient>
	<path style="fill:url(#SVGID_00000060001821293702083160000009706653388986913960_);" d="M402.17,399.21
		c3.99,43.64,37.3,46.45,37.3,46.45c-51.38,0.94-54.9-52.08-54.9-52.08c-0.12-1.82-0.37-3.63-0.49-5.45
		c-0.83-13.39,1.22-26.86,5.87-39.44c0.96-2.6,2.03-5.15,3.19-7.66c3.26-7.02,7.28-13.68,11.92-19.87c2.27-3.03,4.7-5.96,7.27-8.75
		c5.04-5.47,10.56-10.08,14.05-16.82c3.14-6.07,4.77-12.87,4.64-19.7c-0.08-4.19-0.74-8.38-1.94-12.39
		c-0.45-1.5-1.21-2.92-1.65-4.39c-0.06-0.18-0.09-0.36-0.11-0.52c-0.24-2.24,2.86-2.49,4.53-1.71c2.6,1.21,5.02,2.49,7.27,3.81
		c26.27,15.38,30.13,36.93,30.13,36.93c7.74,49.97-32.92,55.76-32.92,55.76c-13.14,2.5-22.06,10.79-22.06,10.79
		C399.59,375.75,402.17,399.21,402.17,399.21z"/>
	
		<linearGradient id="SVGID_00000000195115857653285550000003776677872514953402_" gradientUnits="userSpaceOnUse" x1="384.3621" y1="314.7324" x2="448.1746" y2="314.7324">
		<stop  offset="0" style="stop-color:#FDA501"/>
		<stop  offset="1" style="stop-color:#FC4708"/>
	</linearGradient>
	<path style="fill:url(#SVGID_00000000195115857653285550000003776677872514953402_);" d="M423.38,329.14
		c0,0-29.81,18.46-39.02,43.85c0,0,0-0.02,0-0.06l0.06-0.68c0-0.04,0.01-0.09,0.01-0.14c0.35-3.27,1.93-15.27,7.61-29.03l1.1-2.05
		c0.55-1.51,1.13-2.9,1.73-4.2c0-0.01,0.01-0.02,0.01-0.03c0.9-1.97,1.86-3.73,2.86-5.38c2.22-3.64,4.67-6.73,7.32-10.26
		c1.68-2.25,3.45-4.44,5.3-6.55l0.02-0.02c0.64-0.73,1.29-1.45,1.94-2.17c5.04-5.47,10.56-10.08,14.05-16.82
		c3.14-6.07,4.77-12.87,4.64-19.7c-0.08-4.19-0.74-8.38-1.94-12.39c-0.45-1.5-1.21-2.92-1.65-4.39c-0.06-0.18-0.09-0.36-0.11-0.52
		c-0.24-2.24,2.86-2.49,4.53-1.71c2.6,1.21,5.02,2.49,7.27,3.81C439.62,261.32,467.27,297.2,423.38,329.14z"/>
</g>
<g>
	<path class="st3" d="M145.51,649.06v-32.53h4.79c1.01,0,1.68,0.48,2,1.43l0.51,2.41c0.57-0.63,1.17-1.21,1.79-1.74
		c0.62-0.53,1.29-0.98,2-1.36c0.71-0.38,1.47-0.68,2.28-0.9c0.81-0.22,1.71-0.33,2.68-0.33c2.05,0,3.74,0.55,5.06,1.66
		c1.32,1.11,2.31,2.58,2.96,4.42c0.51-1.08,1.14-2,1.9-2.77c0.76-0.77,1.6-1.4,2.5-1.89c0.91-0.49,1.88-0.85,2.9-1.08
		c1.03-0.23,2.06-0.35,3.09-0.35c1.8,0,3.39,0.27,4.79,0.82c1.39,0.55,2.57,1.35,3.52,2.41c0.95,1.06,1.67,2.35,2.17,3.87
		c0.5,1.52,0.74,3.27,0.74,5.23v20.7h-7.83v-20.7c0-2.07-0.45-3.63-1.36-4.68c-0.91-1.05-2.24-1.57-3.99-1.57
		c-0.8,0-1.55,0.14-2.24,0.41c-0.69,0.27-1.29,0.67-1.81,1.19c-0.52,0.52-0.92,1.17-1.22,1.95c-0.3,0.78-0.44,1.68-0.44,2.7v20.7
		h-7.86v-20.7c0-2.18-0.44-3.76-1.32-4.76c-0.88-0.99-2.16-1.49-3.85-1.49c-1.14,0-2.2,0.28-3.19,0.84c-0.98,0.56-1.9,1.33-2.74,2.3
		v23.81H145.51z"/>
	<path class="st3" d="M206.45,620.53c1.31-1.37,2.76-2.47,4.36-3.28c1.6-0.81,3.42-1.22,5.47-1.22c1.88,0,3.58,0.37,5.09,1.11
		c1.51,0.74,2.8,1.8,3.87,3.19c1.07,1.38,1.89,3.06,2.46,5.02c0.57,1.97,0.86,4.17,0.86,6.63c0,2.64-0.33,5.04-0.98,7.2
		c-0.66,2.16-1.59,4-2.81,5.53c-1.22,1.53-2.68,2.72-4.39,3.57c-1.71,0.84-3.61,1.27-5.71,1.27c-1.01,0-1.93-0.1-2.76-0.3
		c-0.82-0.2-1.59-0.48-2.28-0.84c-0.7-0.36-1.34-0.8-1.92-1.32c-0.58-0.52-1.14-1.09-1.66-1.73l-0.35,2.19
		c-0.13,0.55-0.34,0.94-0.65,1.17c-0.31,0.23-0.72,0.35-1.25,0.35h-5.17v-47.11h7.83V620.53z M206.45,640.63
		c0.89,1.08,1.85,1.84,2.9,2.28s2.15,0.67,3.31,0.67c1.2,0,2.29-0.22,3.25-0.65c0.96-0.43,1.78-1.11,2.46-2.03
		c0.68-0.92,1.19-2.09,1.55-3.52c0.36-1.43,0.54-3.13,0.54-5.12c0-3.57-0.59-6.16-1.78-7.75c-1.18-1.6-2.89-2.39-5.1-2.39
		c-1.5,0-2.81,0.34-3.93,1.03c-1.12,0.69-2.19,1.65-3.2,2.9V640.63z"/>
	<path class="st3" d="M240.63,633.78c0.13,1.67,0.42,3.11,0.89,4.33c0.46,1.22,1.08,2.22,1.84,3.01c0.76,0.79,1.66,1.38,2.71,1.78
		c1.05,0.39,2.2,0.59,3.47,0.59c1.27,0,2.36-0.15,3.28-0.44c0.92-0.3,1.72-0.62,2.41-0.98c0.69-0.36,1.29-0.69,1.81-0.98
		c0.52-0.3,1.02-0.44,1.51-0.44c0.65,0,1.14,0.24,1.46,0.73l2.25,2.85c-0.87,1.01-1.84,1.87-2.92,2.55
		c-1.08,0.69-2.2,1.24-3.38,1.65c-1.17,0.41-2.37,0.7-3.58,0.87c-1.22,0.17-2.39,0.25-3.54,0.25c-2.26,0-4.37-0.38-6.31-1.13
		c-1.94-0.75-3.64-1.86-5.07-3.33c-1.44-1.47-2.57-3.29-3.39-5.45c-0.82-2.17-1.24-4.68-1.24-7.53c0-2.22,0.36-4.31,1.08-6.26
		c0.72-1.95,1.75-3.66,3.09-5.1c1.34-1.45,2.98-2.59,4.91-3.44c1.93-0.85,4.12-1.27,6.55-1.27c2.05,0,3.94,0.33,5.68,0.98
		c1.73,0.66,3.22,1.61,4.47,2.87c1.25,1.26,2.22,2.8,2.93,4.63c0.71,1.83,1.06,3.92,1.06,6.26c0,1.18-0.13,1.98-0.38,2.39
		c-0.25,0.41-0.74,0.62-1.46,0.62H240.63z M255.56,629.06c0-1.01-0.14-1.97-0.43-2.87c-0.29-0.9-0.71-1.69-1.28-2.36
		c-0.57-0.68-1.29-1.21-2.17-1.6c-0.88-0.39-1.9-0.59-3.06-0.59c-2.26,0-4.04,0.64-5.34,1.93c-1.3,1.29-2.13,3.12-2.49,5.48H255.56z
		"/>
	<path class="st3" d="M275.85,622.18c1.01-1.94,2.22-3.47,3.61-4.58c1.39-1.11,3.04-1.66,4.95-1.66c1.5,0,2.71,0.33,3.61,0.98
		l-0.51,5.87c-0.11,0.38-0.26,0.65-0.46,0.81c-0.2,0.16-0.47,0.24-0.81,0.24c-0.32,0-0.79-0.05-1.41-0.16
		c-0.62-0.11-1.23-0.16-1.82-0.16c-0.87,0-1.64,0.13-2.31,0.38c-0.68,0.25-1.28,0.62-1.82,1.09c-0.54,0.48-1.01,1.05-1.43,1.73
		s-0.8,1.45-1.16,2.31v20.04h-7.83v-32.53h4.6c0.8,0,1.36,0.14,1.68,0.43c0.32,0.29,0.53,0.8,0.63,1.54L275.85,622.18z"/>
	<path class="st4" d="M331.84,611.55c-0.25,0.44-0.52,0.77-0.81,0.97c-0.29,0.2-0.64,0.3-1.06,0.3c-0.44,0-0.92-0.16-1.44-0.49
		c-0.52-0.33-1.14-0.69-1.85-1.09c-0.72-0.4-1.56-0.77-2.52-1.09c-0.96-0.33-2.1-0.49-3.41-0.49c-1.18,0-2.22,0.14-3.11,0.43
		c-0.89,0.29-1.63,0.68-2.24,1.19c-0.6,0.51-1.05,1.12-1.35,1.82c-0.3,0.71-0.44,1.49-0.44,2.33c0,1.08,0.3,1.98,0.9,2.7
		c0.6,0.72,1.4,1.33,2.39,1.84c0.99,0.51,2.12,0.96,3.39,1.36c1.27,0.4,2.57,0.83,3.9,1.28c1.33,0.46,2.63,0.98,3.9,1.59
		c1.27,0.6,2.4,1.36,3.39,2.28c0.99,0.92,1.79,2.04,2.39,3.38c0.6,1.33,0.9,2.95,0.9,4.85c0,2.07-0.35,4.01-1.06,5.82
		c-0.71,1.81-1.74,3.38-3.11,4.72s-3.03,2.4-4.99,3.17c-1.97,0.77-4.22,1.16-6.75,1.16c-1.46,0-2.9-0.14-4.31-0.43
		c-1.42-0.29-2.77-0.69-4.07-1.22c-1.3-0.53-2.52-1.16-3.66-1.9c-1.14-0.74-2.16-1.56-3.04-2.47l2.5-4.09
		c0.21-0.3,0.49-0.54,0.82-0.74c0.34-0.2,0.7-0.3,1.08-0.3c0.53,0,1.1,0.22,1.71,0.65c0.61,0.43,1.34,0.91,2.19,1.44
		c0.85,0.53,1.83,1.01,2.96,1.44c1.13,0.43,2.49,0.65,4.07,0.65c2.43,0,4.31-0.58,5.64-1.73c1.33-1.15,2-2.81,2-4.96
		c0-1.2-0.3-2.19-0.9-2.95c-0.6-0.76-1.4-1.4-2.39-1.92c-0.99-0.52-2.12-0.96-3.39-1.32c-1.27-0.36-2.56-0.75-3.87-1.17
		c-1.31-0.42-2.6-0.93-3.87-1.52c-1.27-0.59-2.4-1.36-3.39-2.31c-0.99-0.95-1.79-2.14-2.39-3.57c-0.6-1.43-0.9-3.19-0.9-5.28
		c0-1.67,0.33-3.3,1-4.88c0.67-1.59,1.63-2.99,2.9-4.22c1.27-1.23,2.83-2.21,4.69-2.95c1.86-0.74,4-1.11,6.4-1.11
		c2.71,0,5.2,0.42,7.48,1.27c2.28,0.85,4.23,2.03,5.83,3.55L331.84,611.55z"/>
	<path class="st4" d="M350.77,610v12.71h16.04v6.56h-16.04v12.97h20.36v6.82h-28.92v-45.85h28.92V610H350.77z"/>
	<path class="st4" d="M417.07,602.64c-0.37-0.25-0.78,0.24-0.47,0.56c4.22,4.22,6.85,10.19,6.85,16.81
		c0,12.79-9.81,23.15-21.91,23.15s-21.91-10.37-21.91-23.15c0-6.59,2.61-12.53,6.79-16.75c0.32-0.32-0.11-0.83-0.48-0.57
		c-7.04,4.9-11.67,13.02-11.74,22.23c-0.12,15.07,12.27,27.57,27.34,27.57c15.1,0,27.34-12.24,27.34-27.34
		C428.88,615.81,424.21,607.57,417.07,602.64z"/>
	
		<linearGradient id="SVGID_00000170958477121462702530000013889730563878084494_" gradientUnits="userSpaceOnUse" x1="399.6515" y1="615.2128" x2="403.5241" y2="649.0408">
		<stop  offset="0" style="stop-color:#E8541E"/>
		<stop  offset="0.0764" style="stop-color:#E3531F"/>
		<stop  offset="0.1728" style="stop-color:#D35021"/>
		<stop  offset="0.2799" style="stop-color:#B94A25"/>
		<stop  offset="0.3947" style="stop-color:#95432A"/>
		<stop  offset="0.5158" style="stop-color:#673931"/>
		<stop  offset="0.6403" style="stop-color:#2F2D3A"/>
		<stop  offset="0.6453" style="stop-color:#2D2D3A"/>
	</linearGradient>
	<path style="fill:url(#SVGID_00000170958477121462702530000013889730563878084494_);" d="M401.48,615.76
		c0,2.23-1.46,4.31-3.27,6.23c-0.16,0.17-0.32,0.33-0.48,0.5c-3.23,3.34-8.3,7.29-5.92,11.33c0.89,1.5,2.72,2.81,5.06,3.63
		c4.96,1.72,11.36,0.07,13.81-2.78c0.07-0.08,0.13-0.16,0.19-0.24c3.37-4.32-2.74-8.82-6.14-12.44
		C402.95,620.06,401.48,617.99,401.48,615.76z"/>
	
		<linearGradient id="SVGID_00000004531655365478529640000008752542759344290448_" gradientUnits="userSpaceOnUse" x1="401.5395" y1="643.1904" x2="401.5395" y2="577.9912">
		<stop  offset="0" style="stop-color:#E8541E"/>
		<stop  offset="0.0764" style="stop-color:#E3531F"/>
		<stop  offset="0.1728" style="stop-color:#D35021"/>
		<stop  offset="0.2799" style="stop-color:#B94A25"/>
		<stop  offset="0.3947" style="stop-color:#95432A"/>
		<stop  offset="0.5158" style="stop-color:#673931"/>
		<stop  offset="0.6403" style="stop-color:#2F2D3A"/>
		<stop  offset="0.6453" style="stop-color:#2D2D3A"/>
	</linearGradient>
	<path style="fill:url(#SVGID_00000004531655365478529640000008752542759344290448_);" d="M417.38,622.78
		c-0.61-4.57-3.32-8.48-5.81-12.23c-1.12-1.69-2.07-3.5-2.91-5.34c-1.73-3.79-3.02-7.78-4.09-11.81
		c-1.34-5.04-2.42-10.22-3.03-15.41c-0.61,5.19-1.69,10.37-3.03,15.41c-1.07,4.02-2.36,8.01-4.09,11.81
		c-0.84,1.84-1.79,3.65-2.91,5.34c-2.49,3.74-5.2,7.66-5.81,12.23c-1.06,7.97,3.17,17.61,11.53,19.73c0.37,0.09,4.32,0.85,4.32,0.65
		c0-0.74,0-1.47,0-2.21c0,0.74,0,1.47,0,2.21c0,0.19,3.94-0.56,4.32-0.65C414.22,640.39,418.45,630.74,417.38,622.78z
		 M411.05,631.71c-0.06,0.14-0.13,0.27-0.2,0.41c-2.48,4.94-8.95,7.79-13.96,4.82c-2.37-1.41-4.22-3.68-5.12-6.29
		c-2.41-7.01,2.72-13.85,5.98-19.64c0.16-0.29,0.32-0.58,0.48-0.87c1.82-3.34,3.3-6.94,3.3-10.8c0,3.87,1.48,7.46,3.3,10.8
		C408.28,616.43,414.45,624.22,411.05,631.71z"/>
	<g>
		
			<linearGradient id="SVGID_00000111150937800500688970000005153552846603251872_" gradientUnits="userSpaceOnUse" x1="79.4924" y1="638.3988" x2="136.3725" y2="606.2828">
			<stop  offset="0.5265" style="stop-color:#0B1D25"/>
			<stop  offset="1" style="stop-color:#334554"/>
		</linearGradient>
		<path style="fill:url(#SVGID_00000111150937800500688970000005153552846603251872_);" d="M99.19,586.4
			c0,0-21.29,13.22-21.42,33.21c0,0-2.58,30.44,30.83,35.21c0,0,29.92,3.1,32.12-21.28c0,0-0.16-1.32-2.06-0.68l-22.74,6.7
			c0,0-6.59,2.22-15.32-1.25l-2-6.99l32.19-9.17c7.12-2.03,11.01-9.69,8.44-16.63l-1.64-4.44c-0.22-0.58-1.07-0.48-1.14,0.14l0,0
			c-0.37,3.25-2.68,5.94-5.83,6.81l-40.38,11.14l6.51-23.93L99.19,586.4z"/>
		
			<linearGradient id="SVGID_00000113322225616732509250000014327514869121888697_" gradientUnits="userSpaceOnUse" x1="88.2722" y1="601.4409" x2="123.8725" y2="601.4409">
			<stop  offset="0" style="stop-color:#FC4708"/>
			<stop  offset="1" style="stop-color:#FDA501"/>
		</linearGradient>
		<path style="fill:url(#SVGID_00000113322225616732509250000014327514869121888697_);" d="M95.8,621.29
			c1.64,17.99,15.38,19.15,15.38,19.15c-21.19,0.39-22.64-21.47-22.64-21.47c-0.05-0.75-0.15-1.5-0.2-2.25
			c-0.34-5.52,0.5-11.07,2.42-16.26c0.4-1.07,0.84-2.12,1.32-3.16c1.34-2.89,3-5.64,4.92-8.19c0.94-1.25,1.94-2.46,3-3.61
			c2.08-2.25,4.35-4.15,5.79-6.94c1.3-2.5,1.97-5.3,1.92-8.12c-0.03-1.73-0.31-3.45-0.8-5.11c-0.18-0.62-0.5-1.2-0.68-1.81
			c-0.02-0.08-0.04-0.15-0.05-0.21c-0.1-0.92,1.18-1.03,1.87-0.71c1.07,0.5,2.07,1.03,3,1.57c10.83,6.34,12.42,15.23,12.42,15.23
			c3.19,20.6-13.57,22.99-13.57,22.99c-5.42,1.03-9.09,4.45-9.09,4.45C94.74,611.61,95.8,621.29,95.8,621.29z"/>
		
			<linearGradient id="SVGID_00000007406794926215907970000014176083082238949306_" gradientUnits="userSpaceOnUse" x1="88.4605" y1="586.4559" x2="114.7709" y2="586.4559">
			<stop  offset="0" style="stop-color:#FDA501"/>
			<stop  offset="1" style="stop-color:#FC4708"/>
		</linearGradient>
		<path style="fill:url(#SVGID_00000007406794926215907970000014176083082238949306_);" d="M104.55,592.4
			c0,0-12.29,7.61-16.09,18.08c0,0,0-0.01,0-0.02l0.03-0.28c0-0.02,0-0.04,0.01-0.06c0.14-1.35,0.8-6.3,3.14-11.97l0.45-0.85
			c0.23-0.62,0.47-1.2,0.71-1.73c0,0,0-0.01,0.01-0.01c0.37-0.81,0.77-1.54,1.18-2.22c0.91-1.5,1.93-2.78,3.02-4.23
			c0.69-0.93,1.42-1.83,2.18-2.7l0.01-0.01c0.26-0.3,0.53-0.6,0.8-0.89c2.08-2.25,4.35-4.15,5.79-6.94c1.3-2.5,1.97-5.3,1.92-8.12
			c-0.03-1.73-0.31-3.45-0.8-5.11c-0.18-0.62-0.5-1.2-0.68-1.81c-0.02-0.08-0.04-0.15-0.05-0.21c-0.1-0.92,1.18-1.03,1.87-0.71
			c1.07,0.5,2.07,1.03,3,1.57C111.25,564.43,122.64,579.23,104.55,592.4z"/>
	</g>
</g>
<g class="st10">
	
		<linearGradient id="SVGID_00000136395273975474606970000005004666762304547770_" gradientUnits="userSpaceOnUse" x1="705.9573" y1="158.2608" x2="703.2377" y2="391.0597">
		<stop  offset="0" style="stop-color:#E8541E"/>
		<stop  offset="0.0764" style="stop-color:#E3531F"/>
		<stop  offset="0.1728" style="stop-color:#D35021"/>
		<stop  offset="0.2799" style="stop-color:#B94A25"/>
		<stop  offset="0.3947" style="stop-color:#95432A"/>
		<stop  offset="0.5158" style="stop-color:#673931"/>
		<stop  offset="0.6403" style="stop-color:#2F2D3A"/>
		<stop  offset="0.6453" style="stop-color:#2D2D3A"/>
	</linearGradient>
	<path style="fill:url(#SVGID_00000136395273975474606970000005004666762304547770_);" d="M737.49,348.83
		c-5.03,13.65-5.75,26.79,5.65,37.64c8.73,8.31,19.73,9.17,31.04,7.75c0.03-0.24,0.06-0.48,0.08-0.71c-1.99,0-4,0.15-5.98-0.02
		c-19.59-1.74-30.78-16.88-26.38-36.28c1.34-5.9,3.94-11.53,6.15-17.2c1.88-4.82,4.28-9.44,6.03-14.29
		c2.47-6.82,2.83-12.8,1.81-19.73c0.23-0.05,0.45-0.09,0.68-0.14c0.66,3.23,1.57,6.43,1.92,9.69c0.71,6.48-0.81,12.7-2.6,18.89
		c-2.54,8.76-5.37,17.47-7.21,26.38c-0.92,4.46,0.01,9.33,0.22,14c0.05,1.04,0.61,2.05,1.23,3.02c-2.62-11.39,1.05-21.83,4.31-32.36
		c2.64-8.51,5.56-17,7.35-25.7c2.72-13.26-1.53-24.97-10.24-35.01c-4.25-4.89-9.06-9.3-13.69-13.84
		c-6.76-6.62-12.39-13.91-14.23-23.64c-1.38,2.43-1.6,7.82-0.64,12.6c1.42,7.07,5.01,12.93,10.02,17.99
		c5.81,5.86,10.93,12.21,13.81,20.08c4.44,12.09,1.24,25.1-8.75,33.74c0.62-1.03,0.81-1.45,1.09-1.81
		c8.42-11.05,9.31-24.87,1.83-36.69c-3.2-5.06-7.15-9.68-10.98-14.31c-5.31-6.41-9.75-13.26-10.77-21.68
		c-0.47-3.88,0-7.87-0.07-11.81c-0.02-1.12-0.12-2.52-0.77-3.31c-9.04-10.95-14.72-23.57-18.55-37.1
		c-1.47-5.2-2.75-10.45-4.18-15.96c-3.36,10.86,1.82,20.34,4.61,30.21c-11.11-10.73-24.55-41.25-27.54-61.53
		c-0.26,2.42-0.68,4.83-0.76,7.26c-0.64,18.21,5.41,34.44,15.3,49.34c3.83,5.78,8.51,11,12.8,16.47c0.44,0.56,0.9,1.09,1.76,2.13
		c-17.4-12.05-43.11-42.2-40.05-82.89c-6.8,9.52-5.6,35.75,2.9,53.46c8.16,17.01,19.17,31.52,37.35,39.12
		c-29.61-4.28-64.56-54.15-64.72-91.46c-0.55,4.17-1.31,8.33-1.62,12.52c-2.01,26.69,6.87,49.38,25.58,68.27
		c9.04,9.13,20.86,12.78,32.99,15.54c2.08,0.47,4.18,0.89,6.19,1.98c-4.29-0.45-8.65-0.59-12.86-1.43
		c-7.54-1.51-15.23-2.8-22.45-5.34c-15.75-5.54-26.03-16.65-30.64-32.82c-1,5.33,0.77,13.9,4.43,20.97
		c7.47,14.42,19.61,22.33,35.42,24.46c9.48,1.28,19.09,1.61,27.79,2.31c-14.98,0.65-30.9,2.5-46.45-2.76
		c-6.84-2.32-13.02-5.85-18.68-10.31c-0.8-0.63-1.6-1.25-2.8-1.56c1.25,1.55,2.47,3.13,3.74,4.66
		c11.98,14.41,27.32,20.39,45.89,18.25c6.27-0.72,12.53-1.49,18.79-2.22c1.11-0.13,2.23-0.22,3.42,0.09
		c-3.14,0.71-6.29,1.35-9.41,2.13c-6.3,1.58-12.62,3.07-18.84,4.91c-11.88,3.5-22.86,1.17-33.41-4.61c-0.66-0.36-1.3-0.76-1.95-1.12
		c-0.04-0.02-0.15,0.07-0.54,0.28c5.21,7.17,11.72,12.32,20.42,14.35c8.26,1.93,16.29,0.35,24.18-2.02c6.29-1.9,12.5-4.1,18.74-6.16
		c1.03-0.34,2.08-0.65,3.31-0.45c-1.33,0.64-2.74,1.15-3.99,1.93c-5.9,3.67-12.12,6.94-17.53,11.23
		c-6.77,5.38-13.39,10.65-22.23,12.18c9,1.81,17.32,0.71,24.83-4.93c7.28-5.48,14.71-10.76,22.11-16.09
		c0.87-0.63,1.93-0.98,3.18-0.98c-2.44,1.97-4.95,3.86-7.3,5.93c-7.94,6.98-14.88,14.7-17.77,25.24
		c-1.39,5.07-1.41,11.79,0.05,17.06c1.62-9.26,5.8-16.81,10.71-23.99c4.94-7.22,10.58-13.8,17.89-18.79
		c-10.2,11.29-19.78,22.73-13.92,39.64c1-15.29,6.16-28.47,18.91-37.82c-5.07,5.23-9.42,10.93-11.17,18.27
		c4.18-7.53,9.37-13.87,18.5-15.74c-2.25,2.08-4.5,4.17-6.57,6.09c3.01-0.45,6.22-0.92,10.23-1.52c-1.81,4.1-4.47,5.9-8.17,7.41
		c2.6,0,4.44-0.03,6.29,0.01c5.79,0.12,9.92,3.85,10.7,9.63c1.26,9.38-5.71,18.47-15.7,20.2c-2.89,0.5-5.9,0.35-8.88,0.5
		c5.35,2.71,11.01,2.97,16.94,1.55c-2.12,3.03-7.94,6.67-15.09,8.65c-5.56,1.54-11.34,2.33-16.48,3.34
		c8.74,1.74,17.72-0.04,26.82-2.72c-2.38,1.86-4.86,3.62-7.12,5.62c-5.64,4.97-11.61,9.65-16.64,15.18
		c-6.89,7.57-9.88,16.92-9.6,27.26c2.3-13.35,9.07-23.59,21.01-30.38c-12.4,15.99-15.1,32.33-2.2,49.28
		c-3.73-8.12-5.17-16.53-2.61-25.36c1.48-5.1,4.06-9.59,7.69-13.53c-1.63,5.62-2.32,11.24-1.04,16.99c2.46,11,9.15,17.71,20.31,19.6
		c8.27,1.4,16.2-0.2,23.07-2.74c-5.02-0.38-10.91-0.23-16.55-1.37c-15.05-3.05-22.44-14.9-19.07-29.86
		C729.77,360.92,733.28,354.74,737.49,348.83z"/>
	
		<linearGradient id="SVGID_00000181088602290096932120000008012451286212006811_" gradientUnits="userSpaceOnUse" x1="784.968" y1="159.1839" x2="782.2484" y2="391.9828">
		<stop  offset="0" style="stop-color:#E8541E"/>
		<stop  offset="0.0764" style="stop-color:#E3531F"/>
		<stop  offset="0.1728" style="stop-color:#D35021"/>
		<stop  offset="0.2799" style="stop-color:#B94A25"/>
		<stop  offset="0.3947" style="stop-color:#95432A"/>
		<stop  offset="0.5158" style="stop-color:#673931"/>
		<stop  offset="0.6403" style="stop-color:#2F2D3A"/>
		<stop  offset="0.6453" style="stop-color:#2D2D3A"/>
	</linearGradient>
	<path style="fill:url(#SVGID_00000181088602290096932120000008012451286212006811_);" d="M815.86,150.4
		c4.73,13.38,6.14,27.02,1.86,40.63c-6.97,22.18-18.8,40.74-41.04,51.15c7.63-1.13,23.34-10.71,31.99-20.2
		c18.01-19.75,29.06-42.77,31.56-69.64c0.2,0.81,0.46,1.68,0.62,2.56c3.53,20.54,0.28,39.91-10.29,57.93
		c-9.02,15.39-21.18,27.09-38.79,32.12c-5.12,1.46-10.3,2.7-15.83,4.13c0.8,0.05,1.25,0.14,1.68,0.11c11.58-0.82,23-2.49,33.91-6.69
		c13.69-5.27,23.64-14.43,29.08-28.21c0.56-1.41,0.96-2.88,1.43-4.32c0.46,1.23,0.54,2.36,0.45,3.47
		c-1.04,12.54-6.44,22.86-16.01,30.98c-9.78,8.31-21.56,11.16-33.98,12c-6.43,0.44-12.88,0.57-19.32,0.85c0,0.3,0,0.6,0,0.9
		c8.74,0,17.48,0.07,26.22-0.02c15-0.16,28.42-4.88,40.26-14.11c0.54-0.42,1.12-0.79,2.1-1.49c-0.3,0.78-0.34,1.05-0.49,1.24
		c-1.31,1.6-2.58,3.24-3.98,4.77c-9.45,10.34-20.7,17.27-35.12,17.37c-6.47,0.05-12.96-0.64-19.42-1.18
		c-4.11-0.34-8.2-1.01-12.29-1.53c0.6,0.58,1.26,0.85,1.95,1.02c8.77,2.16,17.59,4.1,26.29,6.53c8.4,2.34,16.57,2.06,24.63-1.02
		c3.87-1.48,7.59-3.37,11.35-5.07c-6.31,11.21-20.93,18.02-34.68,15.1c-9.79-2.07-19.3-5.45-28.94-8.26
		c-0.81-0.24-1.59-0.58-2.4-0.81c-0.68-0.2-1.38-0.31-2.07-0.46c10.61,4.63,19.73,11.34,28.48,18.73c4.29,3.63,9.51,5.65,15.08,6.64
		c0.46,0.08,0.89,0.36,1.74,0.72c-10.34,2-19.3,0.47-27.21-6.19c-5.03-4.24-10.28-8.23-15.57-12.14c-2.14-1.59-4.66-2.67-7.01-3.98
		c3.09,3.07,6.42,5.68,9.55,8.52c8.1,7.34,14.68,15.69,16.56,26.85c0.72,4.28,0.84,8.62-0.53,13.5
		c-2.39-13.82-19.56-39.3-27.46-41.24c16.45,16.62,16.09,30.12,12.19,37.59c0.32-12.23-6.86-29.14-14.82-34.23
		c6.46,8.86,9.88,18.42,10.87,28.85c-0.45-0.82-0.7-1.72-0.93-2.62c-2.57-10.29-7.02-19.67-13.95-27.71
		c-4.42-5.13-9.28-9.87-13.88-14.84c-5.44-5.86-10.02-12.29-11.87-20.23c-2.42-10.4-0.81-19.85,7.34-27.45
		c1.41-1.31,3.1-2.31,5.16-3.81c-5.89,0.92-9.89,4.06-13.72,7.51c-0.19-0.21-0.38-0.41-0.57-0.62c2.09-2.29,4.18-4.58,6.27-6.87
		c0.12,0.1,0.25,0.2,0.37,0.29c-1.34,0.49-2.69,0.98-4.03,1.47c-0.07-0.14-0.14-0.27-0.21-0.41c1.74-1.17,3.49-2.34,5.28-3.55
		c-0.44-0.26-0.73-0.44-1.2-0.72c5.11-2.26,10.08-1.92,15.34-1.38c-2.31-1.61-4.61-3.23-6.99-4.89c5.38,0.65,9.44,3.53,10.93,7.37
		c0.46,1.18,1.41,2.34,2.44,3.1c2.28,1.7,4.62,3.25,5.83,6.01c-2.49,0-4.69-0.35-6.74,0.07c-5.02,1.03-8.6,5.54-8.9,10.72
		c-0.29,4.94,3.14,10.61,7.57,12.2c0.65,0.24,1.88-0.1,2.38-0.62c3.64-3.77,7.71-7.29,10.63-11.58
		c9.47-13.92,14.08-29.69,16.76-46.64c3.87,10.52-0.66,19.9-2.88,29.5c6.68-9.17,12.71-18.68,17.41-28.97
		c4.57-9.99,7.81-20.35,8.43-31.34c4.17,30.04-8.94,53.68-28.07,75.09C803.59,212.05,817.02,184.72,815.86,150.4z M741.24,239.21
		c-1.43,11.88,10.15,21.23,23.07,18.59C751.89,257.19,744.48,251,741.24,239.21z M749.84,218.75c-0.63-0.44-1.24-1.19-1.9-1.23
		c-0.64-0.05-1.34,0.62-2.01,0.98c0.51,0.65,1.02,1.31,1.79,2.29C748.64,219.9,749.24,219.33,749.84,218.75z"/>
</g>
<path class="st3" d="M621.51,301.8v-35.56h5.23c1.11,0,1.84,0.52,2.18,1.56l0.55,2.63c0.62-0.69,1.28-1.33,1.96-1.91
	c0.68-0.58,1.41-1.07,2.18-1.49c0.77-0.42,1.61-0.75,2.5-0.99c0.89-0.24,1.87-0.36,2.93-0.36c2.24,0,4.08,0.61,5.53,1.82
	c1.44,1.21,2.52,2.83,3.24,4.84c0.55-1.18,1.25-2.19,2.08-3.03c0.83-0.84,1.74-1.53,2.74-2.06c0.99-0.53,2.05-0.92,3.17-1.18
	c1.12-0.25,2.25-0.38,3.38-0.38c1.96,0,3.71,0.3,5.23,0.9c1.53,0.6,2.81,1.48,3.85,2.63c1.04,1.16,1.83,2.57,2.37,4.23
	c0.54,1.66,0.81,3.57,0.81,5.72v22.64h-8.56v-22.64c0-2.26-0.5-3.97-1.49-5.11c-0.99-1.14-2.45-1.72-4.37-1.72
	c-0.88,0-1.69,0.15-2.44,0.45c-0.75,0.3-1.41,0.73-1.98,1.3c-0.57,0.57-1.01,1.28-1.33,2.13c-0.32,0.86-0.49,1.84-0.49,2.95v22.64
	h-8.6v-22.64c0-2.38-0.48-4.11-1.44-5.2c-0.96-1.09-2.36-1.63-4.21-1.63c-1.25,0-2.41,0.31-3.48,0.92c-1.07,0.61-2.07,1.45-3,2.51
	v26.03H621.51z"/>
<path class="st3" d="M688.14,270.61c1.43-1.5,3.02-2.7,4.77-3.59c1.74-0.89,3.74-1.33,5.98-1.33c2.06,0,3.91,0.4,5.56,1.21
	c1.65,0.81,3.06,1.97,4.23,3.48c1.17,1.51,2.06,3.34,2.69,5.49c0.62,2.15,0.94,4.56,0.94,7.24c0,2.89-0.36,5.51-1.07,7.87
	c-0.72,2.36-1.74,4.37-3.07,6.05c-1.33,1.68-2.93,2.98-4.8,3.9c-1.87,0.92-3.95,1.39-6.24,1.39c-1.11,0-2.11-0.11-3.02-0.33
	c-0.9-0.22-1.73-0.53-2.5-0.92c-0.76-0.39-1.46-0.87-2.1-1.44c-0.64-0.57-1.24-1.2-1.82-1.89l-0.38,2.39
	c-0.14,0.6-0.38,1.03-0.71,1.28c-0.34,0.25-0.79,0.38-1.37,0.38h-5.65v-51.51h8.56V270.61z M688.14,292.58
	c0.97,1.18,2.03,2.01,3.17,2.5c1.14,0.49,2.35,0.73,3.62,0.73c1.32,0,2.5-0.24,3.55-0.71c1.05-0.47,1.95-1.21,2.69-2.22
	c0.74-1.01,1.31-2.29,1.7-3.85c0.39-1.56,0.59-3.43,0.59-5.6c0-3.91-0.65-6.73-1.94-8.48c-1.29-1.74-3.15-2.62-5.58-2.62
	c-1.64,0-3.07,0.38-4.3,1.13c-1.23,0.75-2.39,1.81-3.5,3.17V292.58z"/>
<path class="st3" d="M725.5,285.09c0.14,1.83,0.46,3.4,0.97,4.73c0.51,1.33,1.18,2.43,2.01,3.29c0.83,0.87,1.82,1.51,2.96,1.94
	c1.14,0.43,2.41,0.64,3.8,0.64c1.39,0,2.58-0.16,3.59-0.49c1.01-0.32,1.88-0.68,2.63-1.07c0.75-0.39,1.41-0.75,1.98-1.07
	c0.57-0.32,1.11-0.49,1.65-0.49c0.72,0,1.25,0.27,1.59,0.8l2.46,3.12c-0.95,1.11-2.01,2.04-3.19,2.79c-1.18,0.75-2.41,1.35-3.69,1.8
	c-1.28,0.45-2.59,0.77-3.92,0.95c-1.33,0.19-2.62,0.28-3.86,0.28c-2.47,0-4.77-0.41-6.9-1.23c-2.13-0.82-3.97-2.03-5.55-3.64
	c-1.57-1.61-2.81-3.59-3.71-5.96c-0.9-2.37-1.35-5.11-1.35-8.23c0-2.43,0.39-4.71,1.18-6.85c0.79-2.14,1.91-4,3.38-5.58
	c1.47-1.58,3.26-2.84,5.37-3.76c2.11-0.92,4.5-1.39,7.16-1.39c2.24,0,4.31,0.36,6.2,1.07c1.89,0.72,3.52,1.76,4.89,3.14
	c1.36,1.38,2.43,3.06,3.21,5.06c0.77,2,1.16,4.28,1.16,6.85c0,1.29-0.14,2.17-0.42,2.62s-0.81,0.68-1.59,0.68H725.5z M741.83,279.93
	c0-1.11-0.16-2.15-0.47-3.14c-0.31-0.98-0.78-1.84-1.4-2.58c-0.62-0.74-1.42-1.32-2.37-1.75c-0.96-0.43-2.07-0.64-3.35-0.64
	c-2.47,0-4.42,0.7-5.84,2.11c-1.42,1.41-2.33,3.41-2.72,6H741.83z"/>
<path class="st3" d="M764.01,272.41c1.11-2.13,2.43-3.8,3.95-5.01c1.53-1.21,3.33-1.82,5.41-1.82c1.64,0,2.96,0.36,3.95,1.07
	l-0.55,6.41c-0.12,0.42-0.28,0.71-0.5,0.88c-0.22,0.17-0.52,0.26-0.88,0.26c-0.35,0-0.86-0.06-1.54-0.17
	c-0.68-0.12-1.35-0.17-1.99-0.17c-0.95,0-1.79,0.14-2.53,0.42c-0.74,0.28-1.4,0.68-1.99,1.2c-0.59,0.52-1.11,1.15-1.56,1.89
	c-0.45,0.74-0.87,1.58-1.27,2.53v21.91h-8.56v-35.56h5.03c0.88,0,1.49,0.16,1.84,0.47c0.35,0.31,0.58,0.87,0.69,1.68L764.01,272.41z
	"/>
<path class="st4" d="M825.23,260.8c-0.28,0.49-0.57,0.84-0.88,1.06c-0.31,0.22-0.7,0.33-1.16,0.33c-0.49,0-1.01-0.18-1.58-0.54
	c-0.57-0.36-1.24-0.76-2.03-1.2c-0.79-0.44-1.7-0.84-2.76-1.2c-1.05-0.36-2.29-0.54-3.73-0.54c-1.29,0-2.43,0.16-3.4,0.47
	c-0.97,0.31-1.79,0.75-2.44,1.3c-0.66,0.55-1.15,1.22-1.47,1.99c-0.32,0.77-0.49,1.62-0.49,2.55c0,1.18,0.33,2.16,0.99,2.95
	c0.66,0.79,1.53,1.46,2.62,2.01c1.09,0.55,2.32,1.05,3.71,1.49c1.39,0.44,2.81,0.91,4.26,1.4c1.46,0.5,2.88,1.07,4.26,1.73
	c1.39,0.66,2.62,1.49,3.71,2.5c1.09,1.01,1.96,2.24,2.62,3.69c0.66,1.46,0.99,3.22,0.99,5.3c0,2.27-0.39,4.39-1.16,6.36
	c-0.77,1.98-1.91,3.7-3.4,5.16c-1.49,1.47-3.31,2.62-5.46,3.47c-2.15,0.84-4.61,1.26-7.38,1.26c-1.59,0-3.17-0.16-4.71-0.47
	c-1.55-0.31-3.03-0.76-4.45-1.33c-1.42-0.58-2.76-1.27-4-2.08c-1.25-0.81-2.36-1.71-3.33-2.7l2.74-4.47
	c0.23-0.32,0.53-0.59,0.9-0.81c0.37-0.22,0.76-0.33,1.18-0.33c0.58,0,1.2,0.24,1.87,0.71c0.67,0.47,1.47,1,2.39,1.58
	c0.92,0.58,2,1.1,3.24,1.58c1.24,0.47,2.72,0.71,4.45,0.71c2.66,0,4.71-0.63,6.17-1.89c1.46-1.26,2.18-3.07,2.18-5.43
	c0-1.32-0.33-2.39-0.99-3.22c-0.66-0.83-1.53-1.53-2.62-2.1c-1.09-0.57-2.32-1.05-3.71-1.44c-1.39-0.39-2.8-0.82-4.23-1.28
	c-1.43-0.46-2.84-1.02-4.23-1.66c-1.39-0.65-2.62-1.49-3.71-2.53c-1.09-1.04-1.96-2.34-2.62-3.9c-0.66-1.56-0.99-3.48-0.99-5.77
	c0-1.83,0.36-3.6,1.09-5.34s1.79-3.27,3.17-4.61c1.39-1.34,3.1-2.41,5.13-3.22c2.03-0.81,4.37-1.21,7-1.21
	c2.96,0,5.68,0.46,8.18,1.39c2.5,0.92,4.62,2.22,6.38,3.88L825.23,260.8z"/>
<path class="st4" d="M845.92,259.1V273h17.54v7.18h-17.54v14.18h22.25v7.45h-31.61v-50.12h31.61v7.42H845.92z"/>
<path class="st4" d="M923.15,276.74c0,3.67-0.61,7.08-1.82,10.21c-1.21,3.13-2.93,5.84-5.15,8.13c-2.22,2.29-4.89,4.07-8.01,5.36
	c-3.12,1.28-6.59,1.92-10.4,1.92c-3.79,0-7.24-0.64-10.36-1.92c-3.12-1.28-5.79-3.07-8.02-5.36c-2.23-2.29-3.96-5-5.18-8.13
	c-1.22-3.13-1.84-6.53-1.84-10.21c0-3.67,0.61-7.08,1.84-10.21c1.22-3.13,2.95-5.84,5.18-8.13c2.23-2.29,4.9-4.07,8.02-5.36
	c3.12-1.28,6.57-1.92,10.36-1.92c2.54,0,4.93,0.29,7.18,0.88c2.24,0.59,4.3,1.42,6.17,2.5c1.87,1.07,3.55,2.38,5.04,3.92
	c1.49,1.54,2.76,3.25,3.8,5.15c1.04,1.9,1.83,3.95,2.37,6.17C922.88,271.96,923.15,274.29,923.15,276.74z M913.62,276.74
	c0-2.75-0.37-5.22-1.11-7.4c-0.74-2.18-1.79-4.04-3.15-5.56c-1.36-1.53-3.02-2.69-4.97-3.5c-1.95-0.81-4.15-1.21-6.6-1.21
	s-4.65,0.4-6.6,1.21c-1.95,0.81-3.62,1.98-4.99,3.5c-1.38,1.53-2.43,3.38-3.17,5.56c-0.74,2.18-1.11,4.65-1.11,7.4
	c0,2.75,0.37,5.22,1.11,7.4c0.74,2.18,1.8,4.03,3.17,5.55c1.37,1.51,3.04,2.68,4.99,3.48c1.95,0.81,4.15,1.21,6.6,1.21
	s4.65-0.4,6.6-1.21c1.95-0.81,3.61-1.97,4.97-3.48c1.36-1.51,2.41-3.36,3.15-5.55S913.62,279.49,913.62,276.74z"/>
<g>
	
		<linearGradient id="SVGID_00000008843975167165473660000005409451595100001710_" gradientUnits="userSpaceOnUse" x1="559.3948" y1="291.8745" x2="613.9133" y2="261.092">
		<stop  offset="0.5265" style="stop-color:#0B1D25"/>
		<stop  offset="1" style="stop-color:#334554"/>
	</linearGradient>
	<path style="fill:url(#SVGID_00000008843975167165473660000005409451595100001710_);" d="M578.28,242.03
		c0,0-20.4,12.67-20.53,31.84c0,0-2.47,29.18,29.55,33.75c0,0,28.68,2.97,30.78-20.4c0,0-0.15-1.27-1.98-0.65l-21.8,6.42
		c0,0-6.32,2.13-14.68-1.2l-1.92-6.7l30.85-8.79c6.82-1.94,10.55-9.29,8.09-15.94l-1.57-4.26c-0.21-0.56-1.03-0.46-1.1,0.13l0,0
		c-0.36,3.11-2.57,5.69-5.59,6.53l-38.71,10.68l6.24-22.93L578.28,242.03z"/>
	
		<linearGradient id="SVGID_00000155144726647310400420000012733035505439282835_" gradientUnits="userSpaceOnUse" x1="567.81" y1="256.451" x2="601.9323" y2="256.451">
		<stop  offset="0" style="stop-color:#FC4708"/>
		<stop  offset="1" style="stop-color:#FDA501"/>
	</linearGradient>
	<path style="fill:url(#SVGID_00000155144726647310400420000012733035505439282835_);" d="M575.03,275.47
		c1.58,17.25,14.74,18.36,14.74,18.36c-20.31,0.37-21.7-20.58-21.7-20.58c-0.05-0.72-0.15-1.43-0.19-2.15
		c-0.33-5.29,0.48-10.61,2.32-15.59c0.38-1.03,0.8-2.04,1.26-3.03c1.29-2.77,2.88-5.41,4.71-7.85c0.9-1.2,1.86-2.35,2.87-3.46
		c1.99-2.16,4.17-3.98,5.55-6.65c1.24-2.4,1.89-5.08,1.84-7.78c-0.03-1.66-0.29-3.31-0.77-4.9c-0.18-0.59-0.48-1.15-0.65-1.73
		c-0.02-0.07-0.04-0.14-0.04-0.21c-0.1-0.89,1.13-0.99,1.79-0.68c1.03,0.48,1.98,0.98,2.88,1.51c10.38,6.08,11.91,14.6,11.91,14.6
		c3.06,19.75-13.01,22.04-13.01,22.04c-5.19,0.99-8.72,4.26-8.72,4.26C574.01,266.2,575.03,275.47,575.03,275.47z"/>
	
		<linearGradient id="SVGID_00000100356836681555379810000006421396272431175339_" gradientUnits="userSpaceOnUse" x1="567.9905" y1="242.0882" x2="593.2085" y2="242.0882">
		<stop  offset="0" style="stop-color:#FDA501"/>
		<stop  offset="1" style="stop-color:#FC4708"/>
	</linearGradient>
	<path style="fill:url(#SVGID_00000100356836681555379810000006421396272431175339_);" d="M583.41,247.78
		c0,0-11.78,7.29-15.42,17.33c0,0,0-0.01,0-0.02l0.03-0.27c0-0.02,0-0.04,0.01-0.05c0.14-1.29,0.76-6.04,3.01-11.47l0.43-0.81
		c0.22-0.6,0.45-1.15,0.68-1.66c0,0,0-0.01,0-0.01c0.36-0.78,0.73-1.47,1.13-2.12c0.88-1.44,1.85-2.66,2.89-4.05
		c0.67-0.89,1.36-1.75,2.09-2.59l0.01-0.01c0.25-0.29,0.51-0.57,0.77-0.86c1.99-2.16,4.17-3.98,5.55-6.65
		c1.24-2.4,1.89-5.08,1.84-7.78c-0.03-1.66-0.29-3.31-0.77-4.9c-0.18-0.59-0.48-1.15-0.65-1.73c-0.02-0.07-0.04-0.14-0.04-0.21
		c-0.1-0.89,1.13-0.99,1.79-0.68c1.03,0.48,1.98,0.98,2.88,1.51C589.83,220.98,600.76,235.16,583.41,247.78z"/>
</g>
<g>
	<path class="st4" d="M807.94,845.1c0,6.26-1.03,12.05-3.1,17.38c-2.07,5.33-4.99,9.95-8.77,13.84c-3.78,3.9-8.32,6.93-13.63,9.12
		c-5.31,2.18-11.21,3.28-17.7,3.28c-6.45,0-12.33-1.09-17.65-3.28s-9.87-5.22-13.66-9.12c-3.8-3.89-6.74-8.51-8.82-13.84
		c-2.09-5.33-3.13-11.12-3.13-17.38c0-6.26,1.04-12.05,3.13-17.38c2.09-5.33,5.03-9.95,8.82-13.84c3.8-3.89,8.35-6.93,13.66-9.12
		s11.19-3.28,17.65-3.28c4.33,0,8.4,0.5,12.22,1.5c3.82,1,7.32,2.42,10.5,4.25c3.19,1.83,6.05,4.05,8.59,6.67
		c2.54,2.62,4.69,5.54,6.46,8.76c1.77,3.23,3.12,6.73,4.04,10.51C807.48,836.95,807.94,840.92,807.94,845.1z M791.71,845.1
		c0-4.68-0.63-8.88-1.89-12.6s-3.05-6.88-5.37-9.47c-2.32-2.6-5.14-4.58-8.47-5.96c-3.33-1.38-7.07-2.07-11.24-2.07
		c-4.17,0-7.92,0.69-11.24,2.07c-3.33,1.38-6.16,3.36-8.5,5.96c-2.34,2.6-4.14,5.75-5.4,9.47c-1.26,3.72-1.89,7.92-1.89,12.6
		c0,4.68,0.63,8.88,1.89,12.6c1.26,3.72,3.06,6.87,5.4,9.44c2.34,2.58,5.17,4.55,8.5,5.93c3.32,1.38,7.07,2.06,11.24,2.06
		c4.17,0,7.92-0.69,11.24-2.06c3.32-1.38,6.15-3.35,8.47-5.93c2.32-2.58,4.11-5.72,5.37-9.44S791.71,849.78,791.71,845.1z"/>
</g>
<path class="st3" d="M313.68,887.8v-58.28h8.58c1.82,0,3.01,0.85,3.58,2.56l0.91,4.32c1.02-1.13,2.09-2.18,3.21-3.12
	c1.12-0.95,2.31-1.76,3.58-2.44c1.27-0.68,2.63-1.22,4.09-1.62c1.46-0.4,3.06-0.6,4.8-0.6c3.67,0,6.69,0.99,9.06,2.98
	c2.37,1.99,4.14,4.63,5.31,7.92c0.91-1.93,2.04-3.59,3.41-4.97c1.36-1.38,2.86-2.51,4.49-3.38c1.63-0.87,3.36-1.51,5.2-1.93
	c1.84-0.42,3.68-0.62,5.54-0.62c3.22,0,6.08,0.49,8.58,1.48c2.5,0.99,4.6,2.42,6.3,4.32s3,4.2,3.89,6.93
	c0.89,2.73,1.33,5.85,1.33,9.37v37.09H381.5v-37.09c0-3.71-0.81-6.5-2.44-8.38c-1.63-1.87-4.01-2.81-7.16-2.81
	c-1.44,0-2.77,0.25-4,0.74c-1.23,0.49-2.31,1.2-3.24,2.13c-0.93,0.93-1.66,2.09-2.19,3.49c-0.53,1.4-0.8,3.01-0.8,4.83v37.09h-14.09
	v-37.09c0-3.9-0.79-6.74-2.36-8.52c-1.57-1.78-3.87-2.67-6.9-2.67c-2.04,0-3.95,0.5-5.71,1.5s-3.4,2.38-4.91,4.12v42.66H313.68z"/>
<path class="st3" d="M422.85,836.68c2.35-2.46,4.95-4.42,7.81-5.88c2.86-1.46,6.12-2.19,9.8-2.19c3.37,0,6.41,0.66,9.12,1.99
	c2.71,1.33,5.02,3.23,6.93,5.71c1.91,2.48,3.38,5.48,4.4,9c1.02,3.52,1.53,7.48,1.53,11.87c0,4.73-0.59,9.03-1.76,12.89
	c-1.17,3.86-2.85,7.17-5.03,9.91c-2.18,2.75-4.8,4.88-7.87,6.39c-3.07,1.51-6.48,2.27-10.22,2.27c-1.82,0-3.46-0.18-4.94-0.54
	c-1.48-0.36-2.84-0.86-4.09-1.51c-1.25-0.64-2.4-1.43-3.44-2.36c-1.04-0.93-2.04-1.96-2.98-3.1l-0.62,3.92
	c-0.23,0.99-0.62,1.69-1.16,2.1c-0.55,0.42-1.3,0.62-2.24,0.62h-9.26v-84.4h14.03V836.68z M422.85,872.69
	c1.59,1.93,3.32,3.29,5.2,4.09s3.85,1.19,5.94,1.19c2.16,0,4.1-0.39,5.82-1.16c1.72-0.78,3.19-1.99,4.4-3.64
	c1.21-1.65,2.14-3.75,2.78-6.3c0.64-2.56,0.97-5.61,0.97-9.17c0-6.4-1.06-11.03-3.18-13.89c-2.12-2.86-5.17-4.29-9.14-4.29
	c-2.69,0-5.04,0.62-7.04,1.85c-2.01,1.23-3.92,2.96-5.74,5.2V872.69z"/>
<path class="st3" d="M484.08,860.42c0.23,2.99,0.76,5.58,1.59,7.75c0.83,2.18,1.93,3.98,3.29,5.4c1.36,1.42,2.98,2.48,4.86,3.18
	c1.87,0.7,3.95,1.05,6.22,1.05s4.23-0.27,5.88-0.8c1.65-0.53,3.09-1.12,4.32-1.76c1.23-0.64,2.31-1.23,3.24-1.76
	c0.93-0.53,1.83-0.8,2.7-0.8c1.17,0,2.04,0.44,2.61,1.31l4.03,5.11c-1.55,1.82-3.29,3.34-5.23,4.57c-1.93,1.23-3.95,2.22-6.05,2.95
	c-2.1,0.74-4.24,1.26-6.42,1.56c-2.18,0.3-4.29,0.45-6.33,0.45c-4.05,0-7.82-0.67-11.3-2.02c-3.48-1.34-6.51-3.33-9.09-5.96
	c-2.58-2.63-4.6-5.89-6.08-9.77c-1.48-3.88-2.21-8.38-2.21-13.49c0-3.98,0.64-7.72,1.93-11.22c1.29-3.5,3.13-6.55,5.54-9.14
	c2.4-2.59,5.34-4.65,8.8-6.16s7.37-2.27,11.73-2.27c3.67,0,7.06,0.59,10.17,1.76c3.1,1.17,5.77,2.89,8.01,5.14
	c2.23,2.25,3.98,5.02,5.25,8.29c1.27,3.28,1.9,7.01,1.9,11.22c0,2.12-0.23,3.55-0.68,4.29c-0.45,0.74-1.33,1.11-2.61,1.11H484.08z
	 M510.83,851.96c0-1.82-0.26-3.53-0.77-5.14s-1.28-3.02-2.3-4.23c-1.02-1.21-2.32-2.17-3.89-2.87c-1.57-0.7-3.4-1.05-5.48-1.05
	c-4.05,0-7.24,1.16-9.57,3.46c-2.33,2.31-3.82,5.59-4.46,9.83H510.83z"/>
<path class="st3" d="M547.18,839.64c1.82-3.48,3.98-6.22,6.48-8.21c2.5-1.99,5.45-2.98,8.86-2.98c2.69,0,4.85,0.59,6.48,1.76
	l-0.91,10.51c-0.19,0.68-0.46,1.17-0.82,1.45c-0.36,0.28-0.84,0.43-1.45,0.43c-0.57,0-1.41-0.09-2.53-0.28
	c-1.12-0.19-2.21-0.29-3.27-0.29c-1.55,0-2.94,0.23-4.15,0.68c-1.21,0.46-2.3,1.11-3.27,1.96c-0.97,0.85-1.82,1.88-2.56,3.09
	s-1.43,2.59-2.07,4.15v35.9h-14.03v-58.28h8.24c1.44,0,2.44,0.25,3.01,0.77c0.57,0.51,0.95,1.43,1.14,2.75L547.18,839.64z"/>
<path class="st4" d="M647.49,820.61c-0.45,0.79-0.94,1.37-1.45,1.73c-0.51,0.36-1.15,0.54-1.9,0.54c-0.79,0-1.66-0.29-2.58-0.88
	c-0.93-0.59-2.04-1.24-3.32-1.96c-1.29-0.72-2.79-1.37-4.52-1.96c-1.72-0.59-3.76-0.88-6.11-0.88c-2.12,0-3.98,0.26-5.57,0.77
	c-1.59,0.51-2.92,1.22-4,2.13c-1.08,0.91-1.88,2-2.41,3.27c-0.53,1.27-0.8,2.66-0.8,4.17c0,1.93,0.54,3.54,1.62,4.83
	c1.08,1.29,2.51,2.39,4.29,3.29c1.78,0.91,3.81,1.72,6.08,2.44s4.6,1.49,6.99,2.3c2.39,0.82,4.71,1.76,6.99,2.84s4.3,2.44,6.08,4.09
	c1.78,1.65,3.21,3.66,4.29,6.05c1.08,2.38,1.62,5.28,1.62,8.69c0,3.71-0.63,7.19-1.9,10.42c-1.27,3.24-3.12,6.06-5.57,8.46
	s-5.42,4.3-8.95,5.68c-3.52,1.38-7.55,2.07-12.1,2.07c-2.61,0-5.19-0.25-7.72-0.77c-2.54-0.51-4.97-1.24-7.3-2.19
	c-2.33-0.95-4.52-2.08-6.56-3.41c-2.04-1.32-3.86-2.8-5.45-4.43l4.49-7.33c0.38-0.53,0.87-0.97,1.48-1.33
	c0.61-0.36,1.25-0.54,1.93-0.54c0.95,0,1.97,0.39,3.07,1.16c1.1,0.78,2.4,1.64,3.92,2.58c1.51,0.95,3.28,1.81,5.31,2.58
	c2.03,0.78,4.46,1.17,7.3,1.17c4.35,0,7.72-1.03,10.11-3.1c2.39-2.06,3.58-5.03,3.58-8.89c0-2.16-0.54-3.92-1.62-5.28
	c-1.08-1.36-2.51-2.51-4.29-3.44c-1.78-0.93-3.81-1.71-6.08-2.36c-2.27-0.64-4.58-1.34-6.93-2.1c-2.35-0.76-4.66-1.67-6.93-2.73
	c-2.27-1.06-4.3-2.44-6.08-4.15c-1.78-1.7-3.21-3.83-4.29-6.39c-1.08-2.56-1.62-5.71-1.62-9.46c0-2.99,0.6-5.91,1.79-8.75
	c1.19-2.84,2.93-5.36,5.2-7.55c2.27-2.2,5.07-3.96,8.41-5.28c3.33-1.33,7.16-1.99,11.47-1.99c4.85,0,9.32,0.76,13.4,2.27
	c4.09,1.52,7.57,3.64,10.45,6.36L647.49,820.61z"/>
<path class="st4" d="M681.4,817.82v22.78h28.74v11.76H681.4v23.23h36.47v12.21h-51.8v-82.13h51.8v12.16H681.4z"/>
<g>
	
		<linearGradient id="SVGID_00000005949265523670294320000006261385411166953639_" gradientUnits="userSpaceOnUse" x1="195.4097" y1="868.6987" x2="297.308" y2="811.1643">
		<stop  offset="0.5265" style="stop-color:#0B1D25"/>
		<stop  offset="1" style="stop-color:#334554"/>
	</linearGradient>
	<path style="fill:url(#SVGID_00000005949265523670294320000006261385411166953639_);" d="M230.7,775.54c0,0-38.13,23.69-38.36,59.5
		c0,0-4.62,54.53,55.22,63.08c0,0,53.61,5.55,57.53-38.13c0,0-0.29-2.37-3.7-1.21l-40.74,12c0,0-11.81,3.99-27.44-2.24l-3.58-12.52
		l57.66-16.44c12.75-3.64,19.72-17.35,15.12-29.79l-2.94-7.95c-0.39-1.05-1.92-0.86-2.05,0.25l0,0c-0.67,5.82-4.8,10.64-10.45,12.2
		l-72.34,19.95l11.67-42.86L230.7,775.54z"/>
	
		<linearGradient id="SVGID_00000124141779157933581540000013804620704236844938_" gradientUnits="userSpaceOnUse" x1="211.1383" y1="802.4901" x2="274.9147" y2="802.4901">
		<stop  offset="0" style="stop-color:#FC4708"/>
		<stop  offset="1" style="stop-color:#FDA501"/>
	</linearGradient>
	<path style="fill:url(#SVGID_00000124141779157933581540000013804620704236844938_);" d="M224.63,838.04
		c2.95,32.23,27.55,34.31,27.55,34.31c-37.95,0.69-40.55-38.47-40.55-38.47c-0.09-1.34-0.28-2.68-0.36-4.02
		c-0.61-9.89,0.9-19.84,4.34-29.13c0.71-1.92,1.5-3.8,2.36-5.66c2.4-5.18,5.38-10.11,8.81-14.68c1.68-2.24,3.47-4.4,5.37-6.46
		c3.73-4.04,7.8-7.44,10.38-12.43c2.32-4.48,3.52-9.5,3.43-14.55c-0.06-3.1-0.55-6.19-1.43-9.15c-0.33-1.11-0.89-2.15-1.22-3.24
		c-0.04-0.14-0.07-0.27-0.08-0.38c-0.18-1.66,2.11-1.84,3.35-1.27c1.92,0.89,3.71,1.84,5.37,2.81
		c19.4,11.36,22.26,27.28,22.26,27.28c5.72,36.91-24.32,41.19-24.32,41.19c-9.7,1.85-16.29,7.97-16.29,7.97
		C222.72,820.71,224.63,838.04,224.63,838.04z"/>
	
		<linearGradient id="SVGID_00000002363641709685240410000001193153374298272395_" gradientUnits="userSpaceOnUse" x1="211.4757" y1="775.6451" x2="258.6096" y2="775.6451">
		<stop  offset="0" style="stop-color:#FDA501"/>
		<stop  offset="1" style="stop-color:#FC4708"/>
	</linearGradient>
	<path style="fill:url(#SVGID_00000002363641709685240410000001193153374298272395_);" d="M240.29,786.29
		c0,0-22.02,13.63-28.82,32.39c0,0,0-0.01,0-0.04l0.05-0.5c0-0.03,0.01-0.07,0.01-0.1c0.26-2.41,1.43-11.28,5.62-21.44l0.81-1.52
		c0.41-1.11,0.83-2.14,1.28-3.11c0-0.01,0.01-0.01,0.01-0.02c0.67-1.45,1.37-2.75,2.12-3.97c1.64-2.69,3.45-4.97,5.41-7.58
		c1.24-1.66,2.55-3.28,3.91-4.84l0.02-0.02c0.47-0.54,0.95-1.07,1.44-1.6c3.73-4.04,7.8-7.44,10.38-12.43
		c2.32-4.48,3.52-9.5,3.43-14.55c-0.06-3.1-0.55-6.19-1.43-9.15c-0.33-1.11-0.89-2.15-1.22-3.24c-0.04-0.14-0.07-0.27-0.08-0.38
		c-0.18-1.66,2.11-1.84,3.35-1.27c1.92,0.89,3.71,1.84,5.37,2.81C252.29,736.19,272.72,762.7,240.29,786.29z"/>
</g>
</svg>
